<svg width="1920" height="1080" viewBox="0 0 1920 1080" fill="none" xmlns="http://www.w3.org/2000/svg">
  <defs>
    <linearGradient id="bgGradient" x1="0%" y1="0%" x2="100%" y2="100%">
      <stop offset="0%" style="stop-color:#f8fafc;stop-opacity:1" />
      <stop offset="30%" style="stop-color:#e2e8f0;stop-opacity:1" />
      <stop offset="70%" style="stop-color:#cbd5e1;stop-opacity:1" />
      <stop offset="100%" style="stop-color:#94a3b8;stop-opacity:1" />
    </linearGradient>
    <radialGradient id="medicalGlow" cx="50%" cy="50%" r="50%">
      <stop offset="0%" style="stop-color:#0ea5e9;stop-opacity:0.1" />
      <stop offset="100%" style="stop-color:#0ea5e9;stop-opacity:0.05" />
    </radialGradient>
    <pattern id="circuitPattern" x="0" y="0" width="200" height="200" patternUnits="userSpaceOnUse">
      <rect x="0" y="0" width="200" height="200" fill="none"/>
      <circle cx="50" cy="50" r="3" fill="#0ea5e9" opacity="0.1"/>
      <circle cx="150" cy="50" r="3" fill="#0ea5e9" opacity="0.1"/>
      <circle cx="50" cy="150" r="3" fill="#0ea5e9" opacity="0.1"/>
      <circle cx="150" cy="150" r="3" fill="#0ea5e9" opacity="0.1"/>
      <line x1="50" y1="50" x2="150" y2="50" stroke="#0ea5e9" stroke-width="1" opacity="0.1"/>
      <line x1="50" y1="50" x2="50" y2="150" stroke="#0ea5e9" stroke-width="1" opacity="0.1"/>
      <line x1="150" y1="50" x2="150" y2="150" stroke="#0ea5e9" stroke-width="1" opacity="0.1"/>
      <line x1="50" y1="150" x2="150" y2="150" stroke="#0ea5e9" stroke-width="1" opacity="0.1"/>
    </pattern>
  </defs>

  <!-- Background -->
  <rect width="1920" height="1080" fill="url(#bgGradient)"/>

  <!-- Medical circuit pattern -->
  <rect width="1920" height="1080" fill="url(#circuitPattern)"/>

  <!-- Medical cross in corner -->
  <g transform="translate(1700, 100)" opacity="0.15">
    <rect x="10" y="0" width="20" height="60" fill="#0ea5e9"/>
    <rect x="0" y="25" width="40" height="10" fill="#0ea5e9"/>
  </g>

  <!-- Stethoscope -->
  <g transform="translate(150, 200)" opacity="0.1">
    <circle cx="50" cy="50" r="35" fill="#0ea5e9"/>
    <circle cx="130" cy="50" r="25" fill="#0ea5e9"/>
    <path d="M50 50 Q90 25 130 50" stroke="#0ea5e9" stroke-width="10" fill="none"/>
    <rect x="130" y="25" width="15" height="50" fill="#0ea5e9"/>
    <circle cx="137" cy="20" r="8" fill="#0ea5e9"/>
  </g>

  <!-- DNA Helix -->
  <g transform="translate(1200, 150)" opacity="0.08">
    <path d="M0 0 Q60 -30 120 0 Q180 30 240 0 Q300 -30 360 0" stroke="#0ea5e9" stroke-width="4" fill="none"/>
    <path d="M0 50 Q60 20 120 50 Q180 80 240 50 Q300 20 360 50" stroke="#0ea5e9" stroke-width="4" fill="none"/>
    <line x1="30" y1="0" x2="30" y2="50" stroke="#0ea5e9" stroke-width="3"/>
    <line x1="90" y1="0" x2="90" y2="50" stroke="#0ea5e9" stroke-width="3"/>
    <line x1="150" y1="0" x2="150" y2="50" stroke="#0ea5e9" stroke-width="3"/>
    <line x1="210" y1="0" x2="210" y2="50" stroke="#0ea5e9" stroke-width="3"/>
    <line x1="270" y1="0" x2="270" y2="50" stroke="#0ea5e9" stroke-width="3"/>
    <line x1="330" y1="0" x2="330" y2="50" stroke="#0ea5e9" stroke-width="3"/>
  </g>

  <!-- Medical equipment silhouettes -->
  <g transform="translate(300, 700)" opacity="0.06">
    <!-- Blood pressure monitor -->
    <rect x="0" y="20" width="80" height="60" rx="10" fill="#0ea5e9"/>
    <rect x="10" y="30" width="60" height="8" fill="#0ea5e9"/>
    <rect x="10" y="45" width="60" height="8" fill="#0ea5e9"/>
    <circle cx="40" cy="70" r="15" fill="#0ea5e9"/>
    <rect x="25" y="85" width="30" height="8" fill="#0ea5e9"/>
  </g>

  <g transform="translate(500, 650)" opacity="0.06">
    <!-- Medical chart -->
    <rect x="0" y="0" width="100" height="120" rx="5" fill="#0ea5e9"/>
    <line x1="10" y1="20" x2="90" y2="20" stroke="#0ea5e9" stroke-width="3"/>
    <line x1="10" y1="40" x2="90" y2="40" stroke="#0ea5e9" stroke-width="3"/>
    <line x1="10" y1="60" x2="90" y2="60" stroke="#0ea5e9" stroke-width="3"/>
    <line x1="10" y1="80" x2="90" y2="80" stroke="#0ea5e9" stroke-width="3"/>
    <line x1="10" y1="100" x2="90" y2="100" stroke="#0ea5e9" stroke-width="3"/>
  </g>

  <!-- Heartbeat line -->
  <g transform="translate(800, 800)" opacity="0.12">
    <path d="M0 50 L25 50 L30 30 L35 70 L40 50 L65 50 L70 30 L75 70 L80 50 L105 50 L110 30 L115 70 L120 50 L145 50 L150 30 L155 70 L160 50 L185 50"
          stroke="#0ea5e9" stroke-width="5" fill="none" stroke-linecap="round"/>
  </g>

  <!-- Medical symbols -->
  <g transform="translate(1600, 400)" opacity="0.08">
    <circle cx="50" cy="50" r="40" fill="none" stroke="#0ea5e9" stroke-width="3"/>
    <path d="M30 50 L70 50 M50 30 L50 70" stroke="#0ea5e9" stroke-width="3"/>
  </g>

  <g transform="translate(200, 500)" opacity="0.08">
    <circle cx="50" cy="50" r="40" fill="none" stroke="#0ea5e9" stroke-width="3"/>
    <path d="M20 50 L80 50 M50 20 L50 80 M30 30 L70 70 M70 30 L30 70" stroke="#0ea5e9" stroke-width="3"/>
  </g>

  <!-- Subtle glow effect -->
  <rect width="1920" height="1080" fill="url(#medicalGlow)"/>
</svg>